<?xml version="1.0" encoding="UTF-8" standalone="no"?>
<!DOCTYPE svg PUBLIC "-//W3C//DTD SVG 1.1//EN" "http://www.w3.org/Graphics/SVG/1.1/DTD/svg11.dtd">
<svg version="1.1" xmlns="http://www.w3.org/2000/svg" xmlns:xlink="http://www.w3.org/1999/xlink" preserveAspectRatio="xMidYMid meet" viewBox="0 0 640 640" width="53.33" height="53.33"><defs><path d="M161.13 400.93C150.1 400.93 141.15 391.99 141.15 380.95C141.15 369.92 150.1 360.97 161.13 360.97C172.17 360.97 181.11 369.92 181.11 380.95C181.11 391.99 172.17 400.93 161.13 400.93Z" id="e1cScWrwX"></path><path d="M494.08 189.29C488.4 185.51 481.1 185.15 475.08 188.37C469.07 191.59 465.31 197.86 465.31 204.68C465.31 205.91 465.31 212.08 465.31 223.18L428.31 223.18C428.31 100.37 428.31 32.14 428.31 18.5C428.31 8.28 420.03 0 409.81 0C372.81 0 76.81 0 39.81 0C39.74 0 39.66 0.01 39.59 0.01C29.35 0.13 21.31 8.51 21.31 18.5C21.31 66.83 21.31 453.5 21.31 501.84C21.31 508.33 24.72 514.35 30.29 517.7C48.79 528.79 196.79 617.57 215.29 628.67C227.54 636.01 243.31 627.24 243.31 612.81C243.31 606.64 243.31 575.82 243.31 520.33C343.21 520.33 398.71 520.33 409.81 520.33C420.03 520.33 428.31 512.05 428.31 501.84C428.31 490.66 428.31 434.76 428.31 334.15L465.31 334.15C465.31 345.24 465.31 351.41 465.31 352.64C465.31 359.46 469.07 365.73 475.08 368.95C481.09 372.16 488.38 371.83 494.08 368.03C505.18 360.63 593.97 301.45 605.07 294.05C610.22 290.62 613.31 284.84 613.31 278.66C613.31 272.48 610.22 266.7 605.07 263.27C582.87 248.48 505.18 196.69 494.08 189.29ZM206.31 580.14L58.31 491.36L58.31 51.16L206.31 139.94L206.31 580.14ZM391.31 483.34L243.31 483.34C243.31 271.02 243.31 153.06 243.31 129.46C243.31 122.97 239.9 116.95 234.33 113.61C225.82 108.5 183.24 82.96 106.6 36.99L391.31 36.99L391.31 223.18C335.81 223.18 304.98 223.18 298.81 223.18C288.6 223.18 280.31 231.46 280.31 241.67C280.31 249.07 280.31 308.25 280.31 315.65C280.31 325.87 288.6 334.15 298.81 334.15C304.98 334.15 335.81 334.15 391.31 334.15L391.31 483.34ZM502.31 318.08C502.31 316.62 502.31 315.81 502.31 315.65C502.31 305.44 494.03 297.16 483.81 297.16C472.71 297.16 417.21 297.16 317.32 297.16L317.32 260.17C417.21 260.17 472.71 260.17 483.81 260.17C494.03 260.17 502.31 251.88 502.31 241.67C502.31 241.51 502.31 240.7 502.31 239.24L561.46 278.66L502.31 318.08Z" id="b3sBjzoDX"></path></defs><g><g><g><use xlink:href="#e1cScWrwX" opacity="1" fill="#ffffff" fill-opacity="1"></use><g><use xlink:href="#e1cScWrwX" opacity="1" fill-opacity="0" stroke="#000000" stroke-width="1" stroke-opacity="0"></use></g></g><g><g><filter id="shadow1273580" x="12.31" y="-9" width="611" height="650.32" filterUnits="userSpaceOnUse" primitiveUnits="userSpaceOnUse"><feFlood></feFlood><feComposite in2="SourceAlpha" operator="in"></feComposite><feGaussianBlur stdDeviation="1"></feGaussianBlur><feOffset dx="1" dy="1" result="afterOffset"></feOffset><feFlood flood-color="#000000" flood-opacity="0.5"></feFlood><feComposite in2="afterOffset" operator="in"></feComposite><feMorphology operator="dilate" radius="1"></feMorphology><feComposite in2="SourceAlpha" operator="out"></feComposite></filter><path d="M494.08 189.29C488.4 185.51 481.1 185.15 475.08 188.37C469.07 191.59 465.31 197.86 465.31 204.68C465.31 205.91 465.31 212.08 465.31 223.18L428.31 223.18C428.31 100.37 428.31 32.14 428.31 18.5C428.31 8.28 420.03 0 409.81 0C372.81 0 76.81 0 39.81 0C39.74 0 39.66 0.01 39.59 0.01C29.35 0.13 21.31 8.51 21.31 18.5C21.31 66.83 21.31 453.5 21.31 501.84C21.31 508.33 24.72 514.35 30.29 517.7C48.79 528.79 196.79 617.57 215.29 628.67C227.54 636.01 243.31 627.24 243.31 612.81C243.31 606.64 243.31 575.82 243.31 520.33C343.21 520.33 398.71 520.33 409.81 520.33C420.03 520.33 428.31 512.05 428.31 501.84C428.31 490.66 428.31 434.76 428.31 334.15L465.31 334.15C465.31 345.24 465.31 351.41 465.31 352.64C465.31 359.46 469.07 365.73 475.08 368.95C481.09 372.16 488.38 371.83 494.08 368.03C505.18 360.63 593.97 301.45 605.07 294.05C610.22 290.62 613.31 284.84 613.31 278.66C613.31 272.48 610.22 266.7 605.07 263.27C582.87 248.48 505.18 196.69 494.08 189.29ZM206.31 580.14L58.31 491.36L58.31 51.16L206.31 139.94L206.31 580.14ZM391.31 483.34L243.31 483.34C243.31 271.02 243.31 153.06 243.31 129.46C243.31 122.97 239.9 116.95 234.33 113.61C225.82 108.5 183.24 82.96 106.6 36.99L391.31 36.99L391.31 223.18C335.81 223.18 304.98 223.18 298.81 223.18C288.6 223.18 280.31 231.46 280.31 241.67C280.31 249.07 280.31 308.25 280.31 315.65C280.31 325.87 288.6 334.15 298.81 334.15C304.98 334.15 335.81 334.15 391.31 334.15L391.31 483.34ZM502.31 318.08C502.31 316.62 502.31 315.81 502.31 315.65C502.31 305.44 494.03 297.16 483.81 297.16C472.71 297.16 417.21 297.16 317.32 297.16L317.32 260.17C417.21 260.17 472.71 260.17 483.81 260.17C494.03 260.17 502.31 251.88 502.31 241.67C502.31 241.51 502.31 240.7 502.31 239.24L561.46 278.66L502.31 318.08Z" id="a2O2YoVYFy" fill="white" fill-opacity="1" filter="url(#shadow1273580)"></path></g><use xlink:href="#b3sBjzoDX" opacity="1" fill="#ffffff" fill-opacity="1"></use><g><use xlink:href="#b3sBjzoDX" opacity="1" fill-opacity="0" stroke="#000000" stroke-width="1" stroke-opacity="0"></use></g><g><filter id="shadow12364073" x="12.31" y="-9" width="611" height="650.32" filterUnits="userSpaceOnUse" primitiveUnits="userSpaceOnUse"><feFlood></feFlood><feComposite in2="SourceAlpha" operator="out"></feComposite><feGaussianBlur stdDeviation="1"></feGaussianBlur><feOffset dx="1" dy="1" result="afterOffset"></feOffset><feFlood flood-color="#000000" flood-opacity="0.5"></feFlood><feComposite in2="afterOffset" operator="in"></feComposite><feMorphology operator="dilate" radius="1"></feMorphology><feComposite in2="SourceAlpha" operator="in"></feComposite></filter><path d="M494.08 189.29C488.4 185.51 481.1 185.15 475.08 188.37C469.07 191.59 465.31 197.86 465.31 204.68C465.31 205.91 465.31 212.08 465.31 223.18L428.31 223.18C428.31 100.37 428.31 32.14 428.31 18.5C428.31 8.28 420.03 0 409.81 0C372.81 0 76.81 0 39.81 0C39.74 0 39.66 0.01 39.59 0.01C29.35 0.13 21.31 8.51 21.31 18.5C21.31 66.83 21.31 453.5 21.31 501.84C21.31 508.33 24.72 514.35 30.29 517.7C48.79 528.79 196.79 617.57 215.29 628.67C227.54 636.01 243.31 627.24 243.31 612.81C243.31 606.64 243.31 575.82 243.31 520.33C343.21 520.33 398.71 520.33 409.81 520.33C420.03 520.33 428.31 512.05 428.31 501.84C428.31 490.66 428.31 434.76 428.31 334.15L465.31 334.15C465.31 345.24 465.31 351.41 465.31 352.64C465.31 359.46 469.07 365.73 475.08 368.95C481.09 372.16 488.38 371.83 494.08 368.03C505.18 360.63 593.97 301.45 605.07 294.05C610.22 290.62 613.31 284.84 613.31 278.66C613.31 272.48 610.22 266.7 605.07 263.27C582.87 248.48 505.18 196.69 494.08 189.29ZM206.31 580.14L58.31 491.36L58.31 51.16L206.31 139.94L206.31 580.14ZM391.31 483.34L243.31 483.34C243.31 271.02 243.31 153.06 243.31 129.46C243.31 122.97 239.9 116.95 234.33 113.61C225.82 108.5 183.24 82.96 106.6 36.99L391.31 36.99L391.31 223.18C335.81 223.18 304.98 223.18 298.81 223.18C288.6 223.18 280.31 231.46 280.31 241.67C280.31 249.07 280.31 308.25 280.31 315.65C280.31 325.87 288.6 334.15 298.81 334.15C304.98 334.15 335.81 334.15 391.31 334.15L391.31 483.34ZM502.31 318.08C502.31 316.62 502.31 315.81 502.31 315.65C502.31 305.44 494.03 297.16 483.81 297.16C472.71 297.16 417.21 297.16 317.32 297.16L317.32 260.17C417.21 260.17 472.71 260.17 483.81 260.17C494.03 260.17 502.31 251.88 502.31 241.67C502.31 241.51 502.31 240.7 502.31 239.24L561.46 278.66L502.31 318.08Z" id="aQsbS5JuS" fill="white" fill-opacity="1" filter="url(#shadow12364073)"></path></g></g></g></g></svg>